<mxfile host="app.diagrams.net" agent="Mozilla/5.0 (X11; Linux x86_64) AppleWebKit/537.36 (KHTML, like Gecko) Chrome/135.0.0.0 Safari/537.36" version="26.2.14">
  <diagram name="Page-1" id="xmjsmFQEz73UxvJd8QAu">
    <mxGraphModel dx="1196" dy="1159" grid="1" gridSize="10" guides="1" tooltips="1" connect="1" arrows="1" fold="1" page="1" pageScale="1" pageWidth="850" pageHeight="1100" math="0" shadow="0">
      <root>
        <mxCell id="0" />
        <mxCell id="1" parent="0" />
        <mxCell id="FItJ198MkCB-DSd5qxxd-1" value="Carpooler" style="shape=umlActor;verticalLabelPosition=bottom;verticalAlign=top;html=1;outlineConnect=0;" parent="1" vertex="1">
          <mxGeometry x="250" y="535" width="40" height="80" as="geometry" />
        </mxCell>
        <mxCell id="FItJ198MkCB-DSd5qxxd-3" value="Κεντρική σελίδα UI" style="shape=umlBoundary;whiteSpace=wrap;html=1;" parent="1" vertex="1">
          <mxGeometry x="680" y="530" width="100" height="80" as="geometry" />
        </mxCell>
        <mxCell id="FItJ198MkCB-DSd5qxxd-6" value="Activities Χρήστη" style="ellipse;shape=umlEntity;whiteSpace=wrap;html=1;" parent="1" vertex="1">
          <mxGeometry x="1000" y="390" width="80" height="80" as="geometry" />
        </mxCell>
        <mxCell id="FItJ198MkCB-DSd5qxxd-8" value="&lt;font style=&quot;font-size: 13px;&quot;&gt;Εμφάνιισε Δραστηριοτήτων και λοιπών λεπτομεριών&lt;/font&gt;" style="ellipse;shape=umlControl;whiteSpace=wrap;html=1;" parent="1" vertex="1">
          <mxGeometry x="960" y="520" width="150" height="90" as="geometry" />
        </mxCell>
        <mxCell id="FItJ198MkCB-DSd5qxxd-9" value="Find Ride UI" style="shape=umlBoundary;whiteSpace=wrap;html=1;" parent="1" vertex="1">
          <mxGeometry x="680" y="660" width="100" height="80" as="geometry" />
        </mxCell>
        <mxCell id="FItJ198MkCB-DSd5qxxd-10" value="" style="endArrow=classic;html=1;rounded=0;" parent="1" edge="1">
          <mxGeometry width="50" height="50" relative="1" as="geometry">
            <mxPoint x="350" y="570" as="sourcePoint" />
            <mxPoint x="660" y="570" as="targetPoint" />
          </mxGeometry>
        </mxCell>
        <mxCell id="FItJ198MkCB-DSd5qxxd-11" value="" style="endArrow=classic;html=1;rounded=0;curved=1;" parent="1" edge="1">
          <mxGeometry width="50" height="50" relative="1" as="geometry">
            <mxPoint x="1040" y="620" as="sourcePoint" />
            <mxPoint x="790" y="690" as="targetPoint" />
            <Array as="points">
              <mxPoint x="1050" y="650" />
              <mxPoint x="850" y="620" />
            </Array>
          </mxGeometry>
        </mxCell>
        <mxCell id="FItJ198MkCB-DSd5qxxd-12" value="" style="endArrow=none;html=1;rounded=0;exitX=0.55;exitY=0.106;exitDx=0;exitDy=0;exitPerimeter=0;entryX=0.5;entryY=1;entryDx=0;entryDy=0;" parent="1" edge="1">
          <mxGeometry width="50" height="50" relative="1" as="geometry">
            <mxPoint x="1041.5" y="530.4800000000005" as="sourcePoint" />
            <mxPoint x="1039.9999999999995" y="472" as="targetPoint" />
          </mxGeometry>
        </mxCell>
        <mxCell id="42Qcf_KdivL-CxCC4_jz-1" value="Επιλογή &quot;Find Ride&quot;" style="text;html=1;align=center;verticalAlign=middle;whiteSpace=wrap;rounded=0;" parent="1" vertex="1">
          <mxGeometry x="390" y="535" width="110" height="30" as="geometry" />
        </mxCell>
        <mxCell id="42Qcf_KdivL-CxCC4_jz-2" value="" style="endArrow=classic;html=1;rounded=0;" parent="1" edge="1">
          <mxGeometry width="50" height="50" relative="1" as="geometry">
            <mxPoint x="800" y="570" as="sourcePoint" />
            <mxPoint x="950" y="570" as="targetPoint" />
          </mxGeometry>
        </mxCell>
        <mxCell id="42Qcf_KdivL-CxCC4_jz-3" value="" style="endArrow=classic;html=1;rounded=0;" parent="1" edge="1">
          <mxGeometry width="50" height="50" relative="1" as="geometry">
            <mxPoint x="350" y="600" as="sourcePoint" />
            <mxPoint x="670" y="700" as="targetPoint" />
          </mxGeometry>
        </mxCell>
        <mxCell id="42Qcf_KdivL-CxCC4_jz-4" value="Επιλογή:&lt;div&gt;&lt;br&gt;&quot;Insta-Ride&quot;&lt;br&gt;&quot;Manage Activities&quot;&lt;br&gt;Επιλογή Activity&lt;/div&gt;" style="text;html=1;align=left;verticalAlign=middle;whiteSpace=wrap;rounded=0;rotation=15;" parent="1" vertex="1">
          <mxGeometry x="425" y="620" width="162.5" height="80" as="geometry" />
        </mxCell>
        <mxCell id="42Qcf_KdivL-CxCC4_jz-5" value="Έλεγξε Επιλογή" style="ellipse;shape=umlControl;whiteSpace=wrap;html=1;" parent="1" vertex="1">
          <mxGeometry x="960" y="710" width="70" height="80" as="geometry" />
        </mxCell>
        <mxCell id="42Qcf_KdivL-CxCC4_jz-6" value="" style="endArrow=classic;html=1;rounded=0;" parent="1" edge="1">
          <mxGeometry width="50" height="50" relative="1" as="geometry">
            <mxPoint x="790" y="720" as="sourcePoint" />
            <mxPoint x="940" y="740" as="targetPoint" />
          </mxGeometry>
        </mxCell>
        <mxCell id="42Qcf_KdivL-CxCC4_jz-7" value="" style="endArrow=classic;html=1;rounded=0;curved=1;" parent="1" edge="1">
          <mxGeometry width="50" height="50" relative="1" as="geometry">
            <mxPoint x="950" y="760" as="sourcePoint" />
            <mxPoint x="720" y="830" as="targetPoint" />
            <Array as="points">
              <mxPoint x="810" y="770" />
              <mxPoint x="730" y="790" />
            </Array>
          </mxGeometry>
        </mxCell>
        <mxCell id="42Qcf_KdivL-CxCC4_jz-8" value="Insta-Ride" style="text;html=1;align=center;verticalAlign=middle;whiteSpace=wrap;rounded=0;rotation=-10;" parent="1" vertex="1">
          <mxGeometry x="770" y="780" width="60" height="30" as="geometry" />
        </mxCell>
        <mxCell id="42Qcf_KdivL-CxCC4_jz-9" value="Εμφάνισε&lt;br&gt;μενού επιλογών" style="ellipse;shape=umlControl;whiteSpace=wrap;html=1;" parent="1" vertex="1">
          <mxGeometry x="670" y="840" width="100" height="90" as="geometry" />
        </mxCell>
        <mxCell id="42Qcf_KdivL-CxCC4_jz-10" value="Χάρτης περιοχής ..." style="ellipse;shape=umlEntity;whiteSpace=wrap;html=1;" parent="1" vertex="1">
          <mxGeometry x="840" y="850" width="90" height="80" as="geometry" />
        </mxCell>
        <mxCell id="42Qcf_KdivL-CxCC4_jz-11" value="" style="endArrow=none;html=1;rounded=0;entryX=0;entryY=0.5;entryDx=0;entryDy=0;" parent="1" target="42Qcf_KdivL-CxCC4_jz-10" edge="1">
          <mxGeometry width="50" height="50" relative="1" as="geometry">
            <mxPoint x="770" y="890" as="sourcePoint" />
            <mxPoint x="590.0000000000001" y="890" as="targetPoint" />
          </mxGeometry>
        </mxCell>
        <mxCell id="42Qcf_KdivL-CxCC4_jz-12" value="" style="endArrow=classic;html=1;rounded=0;" parent="1" edge="1">
          <mxGeometry width="50" height="50" relative="1" as="geometry">
            <mxPoint x="650" y="890" as="sourcePoint" />
            <mxPoint x="590" y="890" as="targetPoint" />
          </mxGeometry>
        </mxCell>
        <mxCell id="42Qcf_KdivL-CxCC4_jz-13" value="Insta-Ride&amp;nbsp;&lt;br&gt;Επιλογές" style="shape=umlBoundary;whiteSpace=wrap;html=1;" parent="1" vertex="1">
          <mxGeometry x="480" y="845" width="100" height="80" as="geometry" />
        </mxCell>
        <mxCell id="42Qcf_KdivL-CxCC4_jz-14" value="" style="endArrow=classic;html=1;rounded=0;curved=1;" parent="1" edge="1">
          <mxGeometry width="50" height="50" relative="1" as="geometry">
            <mxPoint x="290" y="650" as="sourcePoint" />
            <mxPoint x="460" y="880" as="targetPoint" />
            <Array as="points">
              <mxPoint x="290" y="740" />
              <mxPoint x="380" y="850" />
              <mxPoint x="420" y="880" />
            </Array>
          </mxGeometry>
        </mxCell>
        <mxCell id="42Qcf_KdivL-CxCC4_jz-15" value="Συμπλήρωση επιλογών&lt;div&gt;&amp;nbsp;Insta-Ride&lt;/div&gt;" style="text;html=1;align=center;verticalAlign=middle;whiteSpace=wrap;rounded=0;" parent="1" vertex="1">
          <mxGeometry x="340" y="750" width="110" height="50" as="geometry" />
        </mxCell>
        <mxCell id="42Qcf_KdivL-CxCC4_jz-16" value="" style="endArrow=classic;html=1;rounded=0;curved=1;" parent="1" edge="1">
          <mxGeometry width="50" height="50" relative="1" as="geometry">
            <mxPoint x="540" y="1110" as="sourcePoint" />
            <mxPoint x="1130" y="1180" as="targetPoint" />
            <Array as="points">
              <mxPoint x="560" y="1170" />
            </Array>
          </mxGeometry>
        </mxCell>
        <mxCell id="42Qcf_KdivL-CxCC4_jz-17" value="Αναζήτησε Matches" style="ellipse;shape=umlControl;whiteSpace=wrap;html=1;" parent="1" vertex="1">
          <mxGeometry x="1170" y="1130" width="80" height="80" as="geometry" />
        </mxCell>
        <mxCell id="42Qcf_KdivL-CxCC4_jz-18" value="Other user activities&lt;div&gt;&amp;nbsp;-&lt;/div&gt;&lt;div&gt;&amp;nbsp;Server&lt;/div&gt;" style="ellipse;shape=umlEntity;whiteSpace=wrap;html=1;" parent="1" vertex="1">
          <mxGeometry x="1373.75" y="1130" width="90" height="80" as="geometry" />
        </mxCell>
        <mxCell id="42Qcf_KdivL-CxCC4_jz-19" value="" style="endArrow=none;html=1;rounded=0;exitX=0;exitY=0.5;exitDx=0;exitDy=0;" parent="1" source="42Qcf_KdivL-CxCC4_jz-18" edge="1">
          <mxGeometry width="50" height="50" relative="1" as="geometry">
            <mxPoint x="1250.3400000000001" y="1230" as="sourcePoint" />
            <mxPoint x="1250" y="1170" as="targetPoint" />
          </mxGeometry>
        </mxCell>
        <mxCell id="42Qcf_KdivL-CxCC4_jz-20" value="Βρέθηκαν Matching?" style="ellipse;shape=umlControl;whiteSpace=wrap;html=1;" parent="1" vertex="1">
          <mxGeometry x="773.13" y="1205" width="83.75" height="90" as="geometry" />
        </mxCell>
        <mxCell id="42Qcf_KdivL-CxCC4_jz-22" value="" style="endArrow=classic;html=1;rounded=0;" parent="1" edge="1">
          <mxGeometry width="50" height="50" relative="1" as="geometry">
            <mxPoint x="753.13" y="1250" as="sourcePoint" />
            <mxPoint x="683.13" y="1250" as="targetPoint" />
          </mxGeometry>
        </mxCell>
        <mxCell id="42Qcf_KdivL-CxCC4_jz-23" value="Δεν Βρέθηκαν Οδηγοι" style="shape=umlBoundary;whiteSpace=wrap;html=1;" parent="1" vertex="1">
          <mxGeometry x="383.13" y="1210" width="100" height="80" as="geometry" />
        </mxCell>
        <mxCell id="42Qcf_KdivL-CxCC4_jz-25" value="" style="endArrow=classic;html=1;rounded=0;" parent="1" edge="1">
          <mxGeometry width="50" height="50" relative="1" as="geometry">
            <mxPoint x="554.38" y="1249" as="sourcePoint" />
            <mxPoint x="504.38" y="1249" as="targetPoint" />
          </mxGeometry>
        </mxCell>
        <mxCell id="42Qcf_KdivL-CxCC4_jz-27" value="UI Matching Επιλογών Drivers" style="shape=umlBoundary;whiteSpace=wrap;html=1;" parent="1" vertex="1">
          <mxGeometry x="410" y="1365" width="100" height="80" as="geometry" />
        </mxCell>
        <mxCell id="42Qcf_KdivL-CxCC4_jz-28" value="" style="endArrow=classic;html=1;rounded=0;curved=1;" parent="1" edge="1">
          <mxGeometry width="50" height="50" relative="1" as="geometry">
            <mxPoint x="810" y="1310" as="sourcePoint" />
            <mxPoint x="720" y="1390" as="targetPoint" />
            <Array as="points">
              <mxPoint x="805" y="1360" />
            </Array>
          </mxGeometry>
        </mxCell>
        <mxCell id="42Qcf_KdivL-CxCC4_jz-29" value="Εμφάνισε&lt;br&gt;Ειδοποίηση" style="ellipse;shape=umlControl;whiteSpace=wrap;html=1;" parent="1" vertex="1">
          <mxGeometry x="575.63" y="1200" width="83.75" height="90" as="geometry" />
        </mxCell>
        <mxCell id="42Qcf_KdivL-CxCC4_jz-30" value="&lt;div&gt;Εμφάνισε Επιλογές&lt;br&gt;Οδηγών&lt;/div&gt;" style="ellipse;shape=umlControl;whiteSpace=wrap;html=1;" parent="1" vertex="1">
          <mxGeometry x="610" y="1355" width="83.75" height="90" as="geometry" />
        </mxCell>
        <mxCell id="42Qcf_KdivL-CxCC4_jz-31" value="" style="endArrow=classic;html=1;rounded=0;" parent="1" edge="1">
          <mxGeometry width="50" height="50" relative="1" as="geometry">
            <mxPoint x="590" y="1410" as="sourcePoint" />
            <mxPoint x="530" y="1410" as="targetPoint" />
          </mxGeometry>
        </mxCell>
        <mxCell id="42Qcf_KdivL-CxCC4_jz-32" value="" style="endArrow=classic;html=1;rounded=0;curved=1;" parent="1" edge="1">
          <mxGeometry width="50" height="50" relative="1" as="geometry">
            <mxPoint x="270" y="650" as="sourcePoint" />
            <mxPoint x="390" y="1400" as="targetPoint" />
            <Array as="points">
              <mxPoint x="270" y="899.63" />
              <mxPoint x="300" y="1390" />
            </Array>
          </mxGeometry>
        </mxCell>
        <mxCell id="42Qcf_KdivL-CxCC4_jz-33" value="Επιλογή Driver" style="text;html=1;align=center;verticalAlign=middle;whiteSpace=wrap;rounded=0;" parent="1" vertex="1">
          <mxGeometry x="295" y="1395" width="110" height="50" as="geometry" />
        </mxCell>
        <mxCell id="42Qcf_KdivL-CxCC4_jz-35" value="Οχι" style="text;html=1;align=center;verticalAlign=middle;whiteSpace=wrap;rounded=0;" parent="1" vertex="1">
          <mxGeometry x="693.13" y="1260" width="60" height="30" as="geometry" />
        </mxCell>
        <mxCell id="42Qcf_KdivL-CxCC4_jz-36" value="Ναι" style="text;html=1;align=center;verticalAlign=middle;whiteSpace=wrap;rounded=0;" parent="1" vertex="1">
          <mxGeometry x="730" y="1310" width="70" height="40" as="geometry" />
        </mxCell>
        <mxCell id="42Qcf_KdivL-CxCC4_jz-38" value="Εμφάνισε Πληροφορίες" style="ellipse;shape=umlControl;whiteSpace=wrap;html=1;" parent="1" vertex="1">
          <mxGeometry x="600" y="1485" width="100" height="90" as="geometry" />
        </mxCell>
        <mxCell id="42Qcf_KdivL-CxCC4_jz-39" value="&lt;div&gt;&lt;div&gt;Other User&lt;/div&gt;&lt;div&gt;Profile&lt;br&gt;&amp;nbsp;-&lt;/div&gt;&lt;div&gt;&amp;nbsp;Server&lt;/div&gt;&lt;/div&gt;" style="ellipse;shape=umlEntity;whiteSpace=wrap;html=1;" parent="1" vertex="1">
          <mxGeometry x="730" y="1490" width="90" height="80" as="geometry" />
        </mxCell>
        <mxCell id="42Qcf_KdivL-CxCC4_jz-41" value="&lt;font style=&quot;font-size: 10px;&quot;&gt;Σελίδα ανάδειξης πληροφοριών οδηγού candidate&lt;/font&gt;" style="shape=umlBoundary;whiteSpace=wrap;html=1;" parent="1" vertex="1">
          <mxGeometry x="420" y="1565" width="130" height="80" as="geometry" />
        </mxCell>
        <mxCell id="42Qcf_KdivL-CxCC4_jz-43" value="" style="endArrow=none;html=1;rounded=0;exitX=0;exitY=0.5;exitDx=0;exitDy=0;" parent="1" source="42Qcf_KdivL-CxCC4_jz-39" target="42Qcf_KdivL-CxCC4_jz-38" edge="1">
          <mxGeometry width="50" height="50" relative="1" as="geometry">
            <mxPoint x="820" y="1535" as="sourcePoint" />
            <mxPoint x="696.25" y="1535" as="targetPoint" />
          </mxGeometry>
        </mxCell>
        <mxCell id="42Qcf_KdivL-CxCC4_jz-45" value="" style="endArrow=classic;html=1;rounded=0;curved=1;" parent="1" edge="1">
          <mxGeometry width="50" height="50" relative="1" as="geometry">
            <mxPoint x="260" y="650" as="sourcePoint" />
            <mxPoint x="390" y="1610" as="targetPoint" />
            <Array as="points">
              <mxPoint x="240" y="899.63" />
              <mxPoint x="270" y="1620" />
            </Array>
          </mxGeometry>
        </mxCell>
        <mxCell id="42Qcf_KdivL-CxCC4_jz-46" value="&quot;Request Pickup&quot;" style="text;html=1;align=center;verticalAlign=middle;whiteSpace=wrap;rounded=0;" parent="1" vertex="1">
          <mxGeometry x="300" y="1605" width="110" height="50" as="geometry" />
        </mxCell>
        <mxCell id="42Qcf_KdivL-CxCC4_jz-48" value="&lt;font style=&quot;font-size: 11px;&quot;&gt;Ειδοποίησε&lt;br&gt;Εν&#39; λόγω οδηγό&lt;/font&gt;" style="ellipse;shape=umlControl;whiteSpace=wrap;html=1;" parent="1" vertex="1">
          <mxGeometry x="666.25" y="1640" width="100" height="90" as="geometry" />
        </mxCell>
        <mxCell id="42Qcf_KdivL-CxCC4_jz-49" value="" style="endArrow=classic;html=1;rounded=0;curved=1;" parent="1" edge="1">
          <mxGeometry width="50" height="50" relative="1" as="geometry">
            <mxPoint x="560" y="1630" as="sourcePoint" />
            <mxPoint x="660" y="1670" as="targetPoint" />
            <Array as="points">
              <mxPoint x="580" y="1650" />
            </Array>
          </mxGeometry>
        </mxCell>
        <mxCell id="42Qcf_KdivL-CxCC4_jz-50" value="" style="endArrow=classic;html=1;rounded=0;curved=1;" parent="1" edge="1">
          <mxGeometry width="50" height="50" relative="1" as="geometry">
            <mxPoint x="660" y="1720" as="sourcePoint" />
            <mxPoint x="530" y="1730" as="targetPoint" />
            <Array as="points">
              <mxPoint x="640" y="1730" />
              <mxPoint x="590" y="1740" />
            </Array>
          </mxGeometry>
        </mxCell>
        <mxCell id="42Qcf_KdivL-CxCC4_jz-51" value="Οθόνη αναμονής" style="shape=umlBoundary;whiteSpace=wrap;html=1;" parent="1" vertex="1">
          <mxGeometry x="410" y="1690" width="100" height="80" as="geometry" />
        </mxCell>
        <mxCell id="42Qcf_KdivL-CxCC4_jz-53" value="Ο οδηγός αποδέχεται" style="ellipse;shape=umlControl;whiteSpace=wrap;html=1;" parent="1" vertex="1">
          <mxGeometry x="860" y="1760" width="70" height="80" as="geometry" />
        </mxCell>
        <mxCell id="42Qcf_KdivL-CxCC4_jz-54" value="Ο οδηγός απορρίπτει" style="ellipse;shape=umlControl;whiteSpace=wrap;html=1;" parent="1" vertex="1">
          <mxGeometry x="1088.75" y="1690" width="70" height="80" as="geometry" />
        </mxCell>
        <mxCell id="42Qcf_KdivL-CxCC4_jz-58" value="" style="endArrow=classic;html=1;rounded=0;curved=1;" parent="1" edge="1">
          <mxGeometry width="50" height="50" relative="1" as="geometry">
            <mxPoint x="490" y="1780" as="sourcePoint" />
            <mxPoint x="910" y="1680" as="targetPoint" />
            <Array as="points">
              <mxPoint x="590" y="1830" />
              <mxPoint x="810" y="1780" />
            </Array>
          </mxGeometry>
        </mxCell>
        <mxCell id="42Qcf_KdivL-CxCC4_jz-59" value="Απορρίπτεται&lt;br&gt;απο Carpooler" style="ellipse;shape=umlControl;whiteSpace=wrap;html=1;" parent="1" vertex="1">
          <mxGeometry x="920" y="1605" width="93.75" height="90" as="geometry" />
        </mxCell>
        <mxCell id="42Qcf_KdivL-CxCC4_jz-60" value="" style="endArrow=classic;html=1;rounded=0;curved=1;" parent="1" edge="1">
          <mxGeometry width="50" height="50" relative="1" as="geometry">
            <mxPoint x="250" y="650" as="sourcePoint" />
            <mxPoint x="390" y="1725" as="targetPoint" />
            <Array as="points">
              <mxPoint x="210" y="1080" />
              <mxPoint x="230" y="1465" />
              <mxPoint x="270" y="1635" />
              <mxPoint x="320" y="1715" />
            </Array>
          </mxGeometry>
        </mxCell>
        <mxCell id="42Qcf_KdivL-CxCC4_jz-61" value="" style="endArrow=classic;html=1;rounded=0;" parent="1" edge="1">
          <mxGeometry width="50" height="50" relative="1" as="geometry">
            <mxPoint x="1013.75" y="1620" as="sourcePoint" />
            <mxPoint x="1050" y="1580" as="targetPoint" />
          </mxGeometry>
        </mxCell>
        <mxCell id="42Qcf_KdivL-CxCC4_jz-62" value="" style="endArrow=classic;html=1;rounded=0;" parent="1" edge="1">
          <mxGeometry width="50" height="50" relative="1" as="geometry">
            <mxPoint x="1013.75" y="1680" as="sourcePoint" />
            <mxPoint x="1073.75" y="1710" as="targetPoint" />
          </mxGeometry>
        </mxCell>
        <mxCell id="42Qcf_KdivL-CxCC4_jz-63" value="Οχι" style="text;html=1;align=center;verticalAlign=middle;whiteSpace=wrap;rounded=0;" parent="1" vertex="1">
          <mxGeometry x="930" y="1720" width="60" height="30" as="geometry" />
        </mxCell>
        <mxCell id="42Qcf_KdivL-CxCC4_jz-64" value="Οχι" style="text;html=1;align=center;verticalAlign=middle;whiteSpace=wrap;rounded=0;" parent="1" vertex="1">
          <mxGeometry x="1013.75" y="1665" width="60" height="30" as="geometry" />
        </mxCell>
        <mxCell id="42Qcf_KdivL-CxCC4_jz-65" value="Ναι" style="text;html=1;align=center;verticalAlign=middle;whiteSpace=wrap;rounded=0;" parent="1" vertex="1">
          <mxGeometry x="1013.75" y="1600" width="60" height="30" as="geometry" />
        </mxCell>
        <mxCell id="42Qcf_KdivL-CxCC4_jz-67" value="" style="endArrow=classic;html=1;rounded=0;" parent="1" edge="1">
          <mxGeometry width="50" height="50" relative="1" as="geometry">
            <mxPoint x="950" y="1700" as="sourcePoint" />
            <mxPoint x="920" y="1760" as="targetPoint" />
          </mxGeometry>
        </mxCell>
        <mxCell id="42Qcf_KdivL-CxCC4_jz-68" value="&lt;span style=&quot;font-size: 11px;&quot;&gt;Ενημέρωσε τον οδηγό για&lt;br&gt;την ακύρωση&amp;nbsp;&lt;/span&gt;" style="ellipse;shape=umlControl;whiteSpace=wrap;html=1;" parent="1" vertex="1">
          <mxGeometry x="1040" y="1500" width="100" height="80" as="geometry" />
        </mxCell>
        <mxCell id="42Qcf_KdivL-CxCC4_jz-71" value="" style="endArrow=classic;html=1;rounded=0;curved=1;" parent="1" edge="1">
          <mxGeometry width="50" height="50" relative="1" as="geometry">
            <mxPoint x="470" y="1460" as="sourcePoint" />
            <mxPoint x="590" y="1535" as="targetPoint" />
            <Array as="points">
              <mxPoint x="470" y="1515" />
              <mxPoint x="530" y="1535" />
            </Array>
          </mxGeometry>
        </mxCell>
        <mxCell id="42Qcf_KdivL-CxCC4_jz-72" value="" style="endArrow=classic;html=1;rounded=0;curved=1;" parent="1" edge="1">
          <mxGeometry width="50" height="50" relative="1" as="geometry">
            <mxPoint x="660" y="1590" as="sourcePoint" />
            <mxPoint x="560" y="1610" as="targetPoint" />
            <Array as="points">
              <mxPoint x="660" y="1620" />
              <mxPoint x="600" y="1620" />
            </Array>
          </mxGeometry>
        </mxCell>
        <mxCell id="42Qcf_KdivL-CxCC4_jz-76" value="" style="endArrow=classic;html=1;rounded=0;curved=1;" parent="1" edge="1">
          <mxGeometry width="50" height="50" relative="1" as="geometry">
            <mxPoint x="1010.0026410393438" y="709.9991130931537" as="sourcePoint" />
            <mxPoint x="1162.13" y="645.2" as="targetPoint" />
            <Array as="points">
              <mxPoint x="1022.13" y="685.2" />
              <mxPoint x="1052.13" y="655.2" />
              <mxPoint x="1078.38" y="645.2" />
              <mxPoint x="1122.13" y="645.2" />
            </Array>
          </mxGeometry>
        </mxCell>
        <mxCell id="42Qcf_KdivL-CxCC4_jz-77" value="&quot;Manage Activities&quot;" style="text;html=1;align=center;verticalAlign=middle;whiteSpace=wrap;rounded=0;rotation=0;" parent="1" vertex="1">
          <mxGeometry x="1043.75" y="660" width="130" height="30" as="geometry" />
        </mxCell>
        <mxCell id="42Qcf_KdivL-CxCC4_jz-78" value="Manage Activities" style="ellipse;whiteSpace=wrap;html=1;" parent="1" vertex="1">
          <mxGeometry x="1173.75" y="620" width="130" height="50" as="geometry" />
        </mxCell>
        <mxCell id="NABKonEqtzCEHzalsWoi-16" value="" style="endArrow=classic;html=1;rounded=0;curved=1;" parent="1" edge="1">
          <mxGeometry width="50" height="50" relative="1" as="geometry">
            <mxPoint x="990" y="810" as="sourcePoint" />
            <mxPoint x="730" y="990" as="targetPoint" />
            <Array as="points">
              <mxPoint x="980" y="850" />
              <mxPoint x="1070" y="890" />
              <mxPoint x="1030" y="980" />
              <mxPoint x="730" y="950" />
            </Array>
          </mxGeometry>
        </mxCell>
        <mxCell id="NABKonEqtzCEHzalsWoi-17" value="Επιλογή Activity" style="text;html=1;align=center;verticalAlign=middle;whiteSpace=wrap;rounded=0;rotation=0;" parent="1" vertex="1">
          <mxGeometry x="990" y="820" width="120" height="30" as="geometry" />
        </mxCell>
        <mxCell id="NABKonEqtzCEHzalsWoi-19" value="Προεπισκόπιση&lt;br&gt;επιλεγμένου Activity" style="shape=umlBoundary;whiteSpace=wrap;html=1;" parent="1" vertex="1">
          <mxGeometry x="450" y="1000" width="120" height="90" as="geometry" />
        </mxCell>
        <mxCell id="NABKonEqtzCEHzalsWoi-21" value="Activities Χρήστη" style="ellipse;shape=umlEntity;whiteSpace=wrap;html=1;" parent="1" vertex="1">
          <mxGeometry x="840" y="1000" width="90" height="80" as="geometry" />
        </mxCell>
        <mxCell id="NABKonEqtzCEHzalsWoi-22" value="" style="endArrow=none;html=1;rounded=0;exitX=0.996;exitY=0.488;exitDx=0;exitDy=0;exitPerimeter=0;entryX=0;entryY=0.5;entryDx=0;entryDy=0;" parent="1" source="NABKonEqtzCEHzalsWoi-18" target="NABKonEqtzCEHzalsWoi-21" edge="1">
          <mxGeometry width="50" height="50" relative="1" as="geometry">
            <mxPoint x="646.02" y="1110" as="sourcePoint" />
            <mxPoint x="840" y="1060" as="targetPoint" />
          </mxGeometry>
        </mxCell>
        <mxCell id="NABKonEqtzCEHzalsWoi-23" value="OPTIONAL: Ακύρωση&lt;br&gt;-&lt;br&gt;&quot;Cancel&quot;" style="text;html=1;align=center;verticalAlign=middle;whiteSpace=wrap;rounded=0;" parent="1" vertex="1">
          <mxGeometry x="310" y="1720" width="60" height="70" as="geometry" />
        </mxCell>
        <mxCell id="NABKonEqtzCEHzalsWoi-25" value="" style="endArrow=classic;html=1;rounded=0;" parent="1" edge="1">
          <mxGeometry width="50" height="50" relative="1" as="geometry">
            <mxPoint x="654.38" y="1044.5" as="sourcePoint" />
            <mxPoint x="594.38" y="1044.5" as="targetPoint" />
          </mxGeometry>
        </mxCell>
        <mxCell id="NABKonEqtzCEHzalsWoi-26" value="" style="endArrow=classic;html=1;rounded=0;curved=1;" parent="1" edge="1">
          <mxGeometry width="50" height="50" relative="1" as="geometry">
            <mxPoint x="280" y="650" as="sourcePoint" />
            <mxPoint x="430" y="1040" as="targetPoint" />
            <Array as="points">
              <mxPoint x="290" y="870" />
              <mxPoint x="320" y="1000" />
              <mxPoint x="380" y="1040" />
            </Array>
          </mxGeometry>
        </mxCell>
        <mxCell id="NABKonEqtzCEHzalsWoi-27" value="&quot;Confirm&quot;" style="text;html=1;align=center;verticalAlign=middle;whiteSpace=wrap;rounded=0;" parent="1" vertex="1">
          <mxGeometry x="340" y="1040" width="110" height="50" as="geometry" />
        </mxCell>
        <mxCell id="NABKonEqtzCEHzalsWoi-34" value="" style="endArrow=none;html=1;rounded=0;curved=1;" parent="1" edge="1">
          <mxGeometry width="50" height="50" relative="1" as="geometry">
            <mxPoint x="650" y="1020" as="sourcePoint" />
            <mxPoint x="555" y="940" as="targetPoint" />
            <Array as="points">
              <mxPoint x="590" y="980" />
            </Array>
          </mxGeometry>
        </mxCell>
        <mxCell id="NABKonEqtzCEHzalsWoi-35" value="" style="endArrow=classic;html=1;rounded=0;curved=1;" parent="1" edge="1">
          <mxGeometry width="50" height="50" relative="1" as="geometry">
            <mxPoint x="820" y="1090" as="sourcePoint" />
            <mxPoint x="1140" y="1160" as="targetPoint" />
            <Array as="points">
              <mxPoint x="940" y="1110" />
            </Array>
          </mxGeometry>
        </mxCell>
        <mxCell id="NABKonEqtzCEHzalsWoi-36" value="" style="endArrow=none;dashed=1;html=1;dashPattern=1 3;strokeWidth=2;rounded=0;curved=1;" parent="1" edge="1">
          <mxGeometry width="50" height="50" relative="1" as="geometry">
            <mxPoint x="820" y="1090" as="sourcePoint" />
            <mxPoint x="649" y="1020" as="targetPoint" />
            <Array as="points">
              <mxPoint x="760" y="1080" />
              <mxPoint x="700" y="1050" />
            </Array>
          </mxGeometry>
        </mxCell>
        <mxCell id="NABKonEqtzCEHzalsWoi-18" value="Εμφάνισε&lt;br&gt;προεπισκόπιση" style="ellipse;shape=umlControl;whiteSpace=wrap;html=1;" parent="1" vertex="1">
          <mxGeometry x="675" y="1000" width="95" height="80" as="geometry" />
        </mxCell>
        <mxCell id="NABKonEqtzCEHzalsWoi-37" value="" style="endArrow=classic;html=1;rounded=0;" parent="1" edge="1">
          <mxGeometry width="50" height="50" relative="1" as="geometry">
            <mxPoint x="1170" y="1220" as="sourcePoint" />
            <mxPoint x="870" y="1260" as="targetPoint" />
          </mxGeometry>
        </mxCell>
        <mxCell id="NABKonEqtzCEHzalsWoi-38" value="" style="endArrow=classic;html=1;rounded=0;curved=1;" parent="1" edge="1">
          <mxGeometry width="50" height="50" relative="1" as="geometry">
            <mxPoint x="1180" y="1720" as="sourcePoint" />
            <mxPoint x="1232" y="1670" as="targetPoint" />
            <Array as="points">
              <mxPoint x="1210" y="1710" />
            </Array>
          </mxGeometry>
        </mxCell>
        <mxCell id="NABKonEqtzCEHzalsWoi-39" value="Εμφάνισε&lt;br&gt;ειδοποίηση&lt;br&gt;απόρριψης" style="ellipse;shape=umlControl;whiteSpace=wrap;html=1;" parent="1" vertex="1">
          <mxGeometry x="1210" y="1570" width="83.75" height="90" as="geometry" />
        </mxCell>
        <mxCell id="NABKonEqtzCEHzalsWoi-40" value="Μήνυμα Απόρριψης απο οδηγό" style="shape=umlBoundary;whiteSpace=wrap;html=1;" parent="1" vertex="1">
          <mxGeometry x="1390" y="1585" width="100" height="80" as="geometry" />
        </mxCell>
        <mxCell id="NABKonEqtzCEHzalsWoi-41" value="" style="endArrow=classic;html=1;rounded=0;" parent="1" edge="1">
          <mxGeometry width="50" height="50" relative="1" as="geometry">
            <mxPoint x="1313.75" y="1624.5" as="sourcePoint" />
            <mxPoint x="1373.75" y="1624.5" as="targetPoint" />
          </mxGeometry>
        </mxCell>
        <mxCell id="NABKonEqtzCEHzalsWoi-42" value="" style="endArrow=classic;html=1;rounded=0;" parent="1" edge="1">
          <mxGeometry width="50" height="50" relative="1" as="geometry">
            <mxPoint x="1520" y="1624.5" as="sourcePoint" />
            <mxPoint x="1580" y="1624.5" as="targetPoint" />
          </mxGeometry>
        </mxCell>
        <mxCell id="NABKonEqtzCEHzalsWoi-43" value="Αφαίρεση απο τη λίστα" style="ellipse;shape=umlControl;whiteSpace=wrap;html=1;" parent="1" vertex="1">
          <mxGeometry x="1600" y="1575" width="83.75" height="90" as="geometry" />
        </mxCell>
        <mxCell id="NABKonEqtzCEHzalsWoi-44" value="Λίστα διαθέσιμων Οδηγών" style="ellipse;shape=umlEntity;whiteSpace=wrap;html=1;" parent="1" vertex="1">
          <mxGeometry x="1603.75" y="1460" width="80" height="80" as="geometry" />
        </mxCell>
        <mxCell id="NABKonEqtzCEHzalsWoi-45" value="" style="endArrow=none;html=1;rounded=0;entryX=0.5;entryY=1;entryDx=0;entryDy=0;" parent="1" target="NABKonEqtzCEHzalsWoi-44" edge="1">
          <mxGeometry width="50" height="50" relative="1" as="geometry">
            <mxPoint x="1644" y="1580" as="sourcePoint" />
            <mxPoint x="1650" y="1540" as="targetPoint" />
          </mxGeometry>
        </mxCell>
        <mxCell id="NABKonEqtzCEHzalsWoi-46" value="" style="endArrow=none;html=1;rounded=0;exitX=0;exitY=0.5;exitDx=0;exitDy=0;" parent="1" source="NABKonEqtzCEHzalsWoi-47" edge="1">
          <mxGeometry width="50" height="50" relative="1" as="geometry">
            <mxPoint x="950" y="1400" as="sourcePoint" />
            <mxPoint x="700" y="1405" as="targetPoint" />
          </mxGeometry>
        </mxCell>
        <mxCell id="NABKonEqtzCEHzalsWoi-47" value="Λίστα διαθέσιμων Οδηγών" style="ellipse;shape=umlEntity;whiteSpace=wrap;html=1;" parent="1" vertex="1">
          <mxGeometry x="955" y="1365" width="80" height="80" as="geometry" />
        </mxCell>
        <mxCell id="NABKonEqtzCEHzalsWoi-48" value="" style="endArrow=classic;html=1;rounded=0;curved=1;" parent="1" edge="1">
          <mxGeometry width="50" height="50" relative="1" as="geometry">
            <mxPoint x="1020" y="1540" as="sourcePoint" />
            <mxPoint x="720" y="1450" as="targetPoint" />
            <Array as="points">
              <mxPoint x="950" y="1530" />
              <mxPoint x="870" y="1520" />
              <mxPoint x="850" y="1490" />
              <mxPoint x="790" y="1460" />
            </Array>
          </mxGeometry>
        </mxCell>
        <mxCell id="NABKonEqtzCEHzalsWoi-49" value="" style="endArrow=classic;html=1;rounded=0;curved=1;" parent="1" edge="1">
          <mxGeometry width="50" height="50" relative="1" as="geometry">
            <mxPoint x="1590" y="1600" as="sourcePoint" />
            <mxPoint x="730" y="1430" as="targetPoint" />
            <Array as="points">
              <mxPoint x="1530" y="1560" />
              <mxPoint x="1340" y="1530" />
              <mxPoint x="1110" y="1480" />
              <mxPoint x="800" y="1440" />
            </Array>
          </mxGeometry>
        </mxCell>
        <mxCell id="VpCjR_LkkgQVyu6OYKBy-2" value="Εμφάνισε&lt;br&gt;ειδοποίηση&lt;br&gt;αποδοχής" style="ellipse;shape=umlControl;whiteSpace=wrap;html=1;" vertex="1" parent="1">
          <mxGeometry x="1005" y="1820" width="83.75" height="90" as="geometry" />
        </mxCell>
        <mxCell id="VpCjR_LkkgQVyu6OYKBy-4" value="" style="endArrow=classic;html=1;rounded=0;curved=1;" edge="1" parent="1">
          <mxGeometry width="50" height="50" relative="1" as="geometry">
            <mxPoint x="940" y="1790" as="sourcePoint" />
            <mxPoint x="1020" y="1820" as="targetPoint" />
            <Array as="points">
              <mxPoint x="970" y="1780" />
            </Array>
          </mxGeometry>
        </mxCell>
        <mxCell id="VpCjR_LkkgQVyu6OYKBy-6" value="" style="endArrow=classic;html=1;rounded=0;" edge="1" parent="1">
          <mxGeometry width="50" height="50" relative="1" as="geometry">
            <mxPoint x="1098.75" y="1880" as="sourcePoint" />
            <mxPoint x="1160" y="1880" as="targetPoint" />
          </mxGeometry>
        </mxCell>
        <mxCell id="VpCjR_LkkgQVyu6OYKBy-7" value="Arrange Pickup" style="ellipse;whiteSpace=wrap;html=1;" vertex="1" parent="1">
          <mxGeometry x="1175.63" y="1850" width="128.12" height="60" as="geometry" />
        </mxCell>
        <mxCell id="VpCjR_LkkgQVyu6OYKBy-8" value="" style="endArrow=classic;html=1;rounded=0;" edge="1" parent="1">
          <mxGeometry width="50" height="50" relative="1" as="geometry">
            <mxPoint x="1323.75" y="1880" as="sourcePoint" />
            <mxPoint x="1374" y="1880" as="targetPoint" />
          </mxGeometry>
        </mxCell>
        <mxCell id="VpCjR_LkkgQVyu6OYKBy-10" value="Έλεγχος αποτυχίας" style="ellipse;shape=umlControl;whiteSpace=wrap;html=1;" vertex="1" parent="1">
          <mxGeometry x="1393.75" y="1830" width="70" height="80" as="geometry" />
        </mxCell>
        <mxCell id="VpCjR_LkkgQVyu6OYKBy-11" value="" style="endArrow=classic;html=1;rounded=0;" edge="1" parent="1">
          <mxGeometry width="50" height="50" relative="1" as="geometry">
            <mxPoint x="1470" y="1840" as="sourcePoint" />
            <mxPoint x="1520" y="1790" as="targetPoint" />
          </mxGeometry>
        </mxCell>
        <mxCell id="VpCjR_LkkgQVyu6OYKBy-12" value="Εμφάνισε&lt;br&gt;ειδοποίηση αποτυχίας" style="ellipse;shape=umlControl;whiteSpace=wrap;html=1;" vertex="1" parent="1">
          <mxGeometry x="1530" y="1710" width="90" height="80" as="geometry" />
        </mxCell>
        <mxCell id="VpCjR_LkkgQVyu6OYKBy-13" value="" style="endArrow=classic;html=1;rounded=0;" edge="1" parent="1">
          <mxGeometry width="50" height="50" relative="1" as="geometry">
            <mxPoint x="1650" y="1760" as="sourcePoint" />
            <mxPoint x="1710" y="1760" as="targetPoint" />
          </mxGeometry>
        </mxCell>
        <mxCell id="VpCjR_LkkgQVyu6OYKBy-14" value="Μήνυμα αποτυχίας Arrange Pickup" style="shape=umlBoundary;whiteSpace=wrap;html=1;" vertex="1" parent="1">
          <mxGeometry x="1730" y="1720" width="100" height="80" as="geometry" />
        </mxCell>
        <mxCell id="VpCjR_LkkgQVyu6OYKBy-15" value="" style="endArrow=classic;html=1;rounded=0;" edge="1" parent="1">
          <mxGeometry width="50" height="50" relative="1" as="geometry">
            <mxPoint x="1480" y="1879.5" as="sourcePoint" />
            <mxPoint x="1560" y="1879.5" as="targetPoint" />
          </mxGeometry>
        </mxCell>
        <mxCell id="VpCjR_LkkgQVyu6OYKBy-16" value="Αποτυχία" style="text;html=1;align=center;verticalAlign=middle;whiteSpace=wrap;rounded=0;rotation=-45;" vertex="1" parent="1">
          <mxGeometry x="1450" y="1790" width="60" height="30" as="geometry" />
        </mxCell>
        <mxCell id="VpCjR_LkkgQVyu6OYKBy-17" value="Επιτυχία" style="text;html=1;align=center;verticalAlign=middle;whiteSpace=wrap;rounded=0;" vertex="1" parent="1">
          <mxGeometry x="1490" y="1880" width="60" height="30" as="geometry" />
        </mxCell>
        <mxCell id="VpCjR_LkkgQVyu6OYKBy-18" value="Εμφάνισε&lt;br&gt;ειδοποίηση επιτυχίας" style="ellipse;shape=umlControl;whiteSpace=wrap;html=1;" vertex="1" parent="1">
          <mxGeometry x="1580" y="1835" width="90" height="80" as="geometry" />
        </mxCell>
        <mxCell id="VpCjR_LkkgQVyu6OYKBy-19" value="" style="endArrow=classic;html=1;rounded=0;" edge="1" parent="1">
          <mxGeometry width="50" height="50" relative="1" as="geometry">
            <mxPoint x="1700" y="1885" as="sourcePoint" />
            <mxPoint x="1760" y="1885" as="targetPoint" />
          </mxGeometry>
        </mxCell>
        <mxCell id="VpCjR_LkkgQVyu6OYKBy-20" value="Μήνυμα επιτυχίας Arrange Pickup" style="shape=umlBoundary;whiteSpace=wrap;html=1;" vertex="1" parent="1">
          <mxGeometry x="1780" y="1845" width="100" height="80" as="geometry" />
        </mxCell>
        <mxCell id="VpCjR_LkkgQVyu6OYKBy-21" value="Εμφάνισε&lt;br&gt;πληροφορίες pickup" style="ellipse;shape=umlControl;whiteSpace=wrap;html=1;" vertex="1" parent="1">
          <mxGeometry x="1580" y="1980" width="90" height="80" as="geometry" />
        </mxCell>
        <mxCell id="VpCjR_LkkgQVyu6OYKBy-22" value="" style="endArrow=classic;html=1;rounded=0;" edge="1" parent="1">
          <mxGeometry width="50" height="50" relative="1" as="geometry">
            <mxPoint x="1700" y="2030" as="sourcePoint" />
            <mxPoint x="1760" y="2030" as="targetPoint" />
          </mxGeometry>
        </mxCell>
        <mxCell id="VpCjR_LkkgQVyu6OYKBy-23" value="Σελιδα περεταίρω πληροφοριών pickup" style="shape=umlBoundary;whiteSpace=wrap;html=1;" vertex="1" parent="1">
          <mxGeometry x="1780" y="1990" width="100" height="80" as="geometry" />
        </mxCell>
        <mxCell id="VpCjR_LkkgQVyu6OYKBy-24" value="" style="endArrow=classic;html=1;rounded=0;" edge="1" parent="1">
          <mxGeometry width="50" height="50" relative="1" as="geometry">
            <mxPoint x="1800" y="1940" as="sourcePoint" />
            <mxPoint x="1680" y="1990" as="targetPoint" />
          </mxGeometry>
        </mxCell>
        <mxCell id="VpCjR_LkkgQVyu6OYKBy-25" value="Λίστα πληροφοριών διοργανωμένου pickup" style="ellipse;shape=umlEntity;whiteSpace=wrap;html=1;" vertex="1" parent="1">
          <mxGeometry x="1390" y="1970" width="130" height="90" as="geometry" />
        </mxCell>
        <mxCell id="VpCjR_LkkgQVyu6OYKBy-26" value="" style="endArrow=none;html=1;rounded=0;entryX=-0.011;entryY=0.513;entryDx=0;entryDy=0;entryPerimeter=0;" edge="1" parent="1" target="VpCjR_LkkgQVyu6OYKBy-21">
          <mxGeometry width="50" height="50" relative="1" as="geometry">
            <mxPoint x="1520" y="2020" as="sourcePoint" />
            <mxPoint x="1570" y="1970" as="targetPoint" />
          </mxGeometry>
        </mxCell>
      </root>
    </mxGraphModel>
  </diagram>
</mxfile>
